<svg xmlns="http://www.w3.org/2000/svg" width="960" height="961" fill="none"><g clip-path="url(#a)"><mask id="b" width="1352" height="1082" x="-57" y="-85" maskUnits="userSpaceOnUse" style="mask-type:alpha"><path stroke="#6D6049" stroke-miterlimit="10" stroke-width="2" d="M-25.84 201.421s49.21 95.907 440.666-174.944c487.83-337.491 900.164 214.183 877.884 172.614"/><path stroke="#6D6049" stroke-miterlimit="10" stroke-width="2" d="M-28.823 272.442s48.186 104.855 444.582-157.141c483.076-321.927 855.981 200.947 835.851 163.573"/><path stroke="#6D6049" stroke-miterlimit="10" stroke-width="2" d="M-31.899 343.557s48 115.107 448.497-139.34C896.039-100.466 1228.4 391.743 1210.51 358.563"/><path stroke="#6D6049" stroke-miterlimit="10" stroke-width="2" d="M-34.881 414.578S12.373 539.192 417.437 293.04C892.497 4.481 1185.06 467.332 1169.41 438.252"/><path stroke="#6D6049" stroke-miterlimit="10" stroke-width="2" d="M-37.864 485.693S8.458 619.534 418.369 381.957c470.493-272.715 723.451 160.87 710.031 135.984"/><path stroke="#6D6049" stroke-miterlimit="10" stroke-width="2" d="M-40.94 556.807s45.39 142.975 460.148-85.934c465.74-256.963 679.272 147.542 668.082 126.758"/><path stroke="#6D6049" stroke-miterlimit="10" stroke-width="2" d="M-43.922 627.829S.35 779.658 420.047 559.697C881.033 318.206 1055.14 693.91 1046.19 677.32"/><path stroke="#6D6049" stroke-miterlimit="10" stroke-width="2" d="M-46.905 698.943s42.967 160.497 467.884-50.33c456.046-226.299 590.911 120.886 584.201 108.396"/><path stroke="#6D6049" stroke-miterlimit="10" stroke-width="2" d="M-49.98 770.058s41.662 168.979 471.705-32.528c451.013-211.293 546.734 107.557 542.26 99.262"/><path stroke="#6D6049" stroke-miterlimit="10" stroke-width="2" d="M-52.963 841.079s40.264 177.181 475.619-14.726c445.888-196.474 502.556 94.229 500.319 90.035"/><path stroke="#6D6049" stroke-miterlimit="10" stroke-width="2" d="M-55.945 912.194s38.772 185.106 479.534 3.076c440.761-181.934 458.376 80.901 458.376 80.901"/></mask><g mask="url(#b)"><circle cx="479.837" cy="478.496" r="482.309" fill="#6D6049"/></g></g><defs><clipPath id="a"><path fill="#fff" d="M0 .473h960v960H0z"/></clipPath></defs></svg>